Coordinates
version=1
nRows=14
nColumns=36
inDegrees=yes

Units are S.I. units (second, meters, Newtons, ...)
If the header above contains a line with 'inDegrees', this indicates whether rotational values are in degrees (yes) or radians (no).

endheader
time	pelvis_tilt	pelvis_list	pelvis_rotation	pelvis_tx	pelvis_ty	pelvis_tz	hip_flexion_r	hip_adduction_r	hip_rotation_r	knee_angle_r	knee_angle_r_beta	ankle_angle_r	subtalar_angle_r	mtp_angle_r	hip_flexion_l	hip_adduction_l	hip_rotation_l	knee_angle_l	knee_angle_l_beta	ankle_angle_l	subtalar_angle_l	mtp_angle_l	lumbar_extension	lumbar_bending	lumbar_rotation	arm_flex_r	arm_add_r	arm_rot_r	elbow_flex_r	pro_sup_r	arm_flex_l	arm_add_l	arm_rot_l	elbow_flex_l	pro_sup_l
      1.25000000	     -1.09956607	      4.95468210	      3.25053250	     -0.44974117	      1.21285427	     -0.55376041	     14.87856916	     -6.80403295	    -16.99246610	      2.26134094	      0.03946784	    -23.71702854	     11.67565627	     -7.32902497	     15.27690932	      0.07596607	     -9.58684728	      0.54478253	      0.00950825	    -21.45150386	      8.03433896	     -7.32902497	     -5.49901911	     -0.28755445	    -15.09039305	    101.61066490	    -75.72723009	     71.57557065	    126.59251373	    102.36979196	    -86.02684489	    -59.75946643	   -148.24405814	    134.10521968	     77.45089374
      1.26000000	     -0.81624382	      4.95885373	      3.65088080	     -0.43649744	      1.19046749	     -0.55464162	     14.95508743	     -7.08504346	    -17.09358681	      2.98647592	      0.05212384	    -24.63400493	     10.78590344	     -7.33300281	     15.20089346	      0.20935250	     -8.27692329	      0.61906676	      0.01080475	    -22.19813958	      8.42551560	     -7.33300281	     -5.43128545	     -0.40918318	    -15.49499155	    103.84372019	    -77.03195402	     70.75949641	    127.66442295	    102.39689933	    -89.32818356	    -58.25032218	   -153.94067970	    134.42724019	     77.18866085
      1.27000000	     -0.35343307	      5.04995601	      3.95285896	     -0.42360463	      1.16740085	     -0.55542476	     15.24811777	     -7.51595155	    -16.52673221	      4.83906465	      0.08445761	    -25.83182826	      9.60670052	     -7.33877028	     14.98083635	      0.46443031	     -6.45009497	      1.04056307	      0.01816125	    -23.79722930	      7.44777862	     -7.33877028	     -5.67612625	     -0.57161515	    -15.73530512	    105.35686768	    -78.44795460	     68.80042206	    128.88617787	    102.01496743	    -91.56679725	    -56.72694058	   -158.74584436	    134.80041559	     76.81198855
      1.28000000	      0.12540336	      5.12307006	      4.32687990	     -0.41134038	      1.14351420	     -0.55608793	     15.89601542	     -7.95338261	    -15.31848278	      7.64384312	      0.13341023	    -27.57587654	      8.09359895	     -7.39060784	     15.05262218	      0.77300829	     -3.81514145	      2.27272879	      0.03966660	    -26.35674552	      4.94340926	     -7.39060784	     -6.06351562	     -0.82756515	    -16.93574552	     98.32431515	    -78.35841842	     57.79793336	    129.69726283	     98.82180186	    -92.69394706	    -53.65580575	   -162.80627072	    135.68845156	     73.30082019
      1.29000000	      0.68394139	      5.02051033	      4.55170895	     -0.39999753	      1.11886118	     -0.55628665	     16.86090298	     -8.03082642	    -12.87370569	     11.82205337	      0.20633376	    -26.76783935	      5.63408021	     -7.42485468	     15.76342417	      0.71044575	     -3.05259598	      4.89157007	      0.08537400	    -28.29406900	      5.00849413	     -7.42485468	     -6.69283903	     -0.85253325	    -17.58631144	     90.75251684	    -78.54893826	     45.91464477	    130.52219444	     99.12075292	    -92.74715887	    -51.37349777	   -165.82972966	    136.36917998	     72.47541629
      1.30000000	      1.25168289	      4.88376982	      4.69092637	     -0.38957154	      1.09353942	     -0.55604128	     18.26687286	     -7.90700289	     -9.95223350	     18.29269458	      0.31926775	    -18.55507252	      2.71710848	     -7.45005654	     16.84507008	      0.57684372	     -2.66472426	      8.53222689	      0.14891545	    -28.42647547	      4.80709829	     -7.45005654	     -7.45622649	     -0.86121165	    -17.98954992	     80.72402472	    -78.48100760	     31.65488608	    131.69687946	     98.85793459	    -91.92737941	    -49.56321923	   -167.91503407	    137.25881111	     71.92961427
      1.31000000	      2.03657153	      4.97631708	      4.77198739	     -0.37970628	      1.06784699	     -0.55562957	     19.77518269	     -7.90996767	     -7.66868121	     26.24494184	      0.45806065	     -4.96072370	      0.37367020	     -7.46877523	     18.07631310	      0.59652839	     -3.10804296	     14.11196446	      0.24630024	    -21.81130697	      3.97458321	     -7.46877523	     -8.50875731	     -1.09864305	    -18.05187151	     68.97005190	    -78.05592755	     15.79504663	    133.18723631	     99.46682592	    -90.50228814	    -48.62540209	   -169.01800105	    138.36335545	     71.73931068
      1.32000000	      2.94459018	      4.80957209	      4.80078836	     -0.37082083	      1.04219527	     -0.55520122	     21.16647272	     -7.38269078	     -5.95552973	     33.37060517	      0.58242693	      6.14273702	     -1.98860701	     -7.47862390	     19.78542133	      0.16969578	     -4.04125179	     21.93726816	      0.38287756	     -8.21651063	      3.20700070	     -7.47862390	     -9.70688344	     -0.96378923	    -18.11579769	     58.70486290	    -76.54209185	      1.89410929	    134.58860440	    101.27598833	    -88.02713076	    -47.90826513	   -168.71878164	    139.78266927	     71.81937980
      1.33000000	      3.27259553	      4.16925721	      4.71872748	     -0.36413847	      1.01736233	     -0.55466802	     23.19469277	     -6.11219057	     -4.50506959	     39.11656459	      0.68271284	     12.59858054	     -5.11054705	     -7.48454778	     22.66121298	     -0.75020268	     -4.35454020	     30.23570507	      0.52771261	      3.85099896	      2.27463315	     -7.48454778	    -10.42484315	     -0.23419587	    -17.98143495	     50.00648409	    -73.82353702	     -9.90174365	    136.12420901	    104.28255099	    -83.73293697	    -47.33460417	   -166.38545908	    141.86948102	     72.30962673
      1.34000000	      2.32502332	      3.29340446	      4.54867807	     -0.35980193	      0.99436427	     -0.55380877	     26.81070984	     -4.43763403	     -2.86712506	     44.38888604	      0.77473221	     15.43256176	     -9.38799307	     -7.48738128	     27.16402412	     -1.67236041	     -3.67845855	     37.55328059	      0.65542839	      9.80925487	      0.24298274	     -7.48738128	     -9.92932937	      0.72070353	    -17.53015777	     42.18442276	    -69.92868852	    -19.89382034	    138.15041582	    107.08334290	    -77.24558271	    -46.73368215	   -161.16059860	    144.93969983	     73.65242972
      1.35000000	      0.54780072	      2.77514189	      4.35904081	     -0.35654612	      0.97408260	     -0.55271716	     31.78551326	     -3.08683698	     -0.78462614	     50.38608465	      0.87940307	     17.27766527	    -12.10557608	     -7.49031717	     32.39788685	     -1.81740105	     -2.11816883	     43.71631465	      0.76299363	     10.57057592	     -4.31357246	     -7.49031717	     -8.86196215	      1.20732039	    -15.70325316	     30.23824292	    -66.05771037	    -34.25071043	    141.22538606	    110.04349736	    -68.83623063	    -47.29329695	   -152.51379486	    148.03038845	     80.43256645
      1.36000000	     -0.25488335	      2.40856263	      4.12145192	     -0.35311279	      0.95796444	     -0.55136340	     35.61682008	     -1.66305767	      1.30906281	     56.17707819	      0.98047498	     17.85455060	    -14.21547368	     -7.49201852	     36.35280452	     -1.86946245	     -0.54176986	     49.54528935	      0.86472843	     10.72117589	     -7.54651825	     -7.49201852	     -8.97164773	      1.66733028	    -14.23314997	     23.08714299	    -60.78333953	    -43.38750453	    143.89718010	    110.58909785	    -59.84060124	    -46.29400506	   -142.63708919	    149.21136568	     97.15728437
      1.37000000	      0.43198564	      2.32740990	      3.76966188	     -0.34965479	      0.94615605	     -0.54994985	     37.04415782	     -0.44215001	      2.88961095	     60.53838177	      1.05659409	     18.35348285	    -15.89610239	     -7.49306333	     38.15882395	     -1.80064120	      0.64055542	     54.59192312	      0.95280880	     11.02096297	     -9.52990905	     -7.49306333	    -10.90321055	      2.01355719	    -12.85482479	     18.78691794	    -55.22484411	    -49.31302679	    145.91077666	    110.21305867	    -51.30289470	    -44.18053973	   -131.97675618	    149.59862296	    110.43950810
      1.38000000	      1.57758198	      2.64583165	      3.36758299	     -0.34681425	      0.93700395	     -0.54866892	     37.06248625	      0.30479531	      4.13764829	     63.33215780	      1.10535468	     19.38070437	    -17.36574014	     -7.49389197	     38.62070097	     -1.42377540	      1.27517853	     58.12911274	      1.01454441	     11.35025916	    -10.80804327	     -7.49389197	    -13.38131872	      1.98326724	    -10.99561457	     14.69546751	    -49.89870443	    -54.41804027	    147.43323447	    109.79181839	    -43.03027478	    -42.12158658	   -118.13601538	    149.74187640	    115.97102741
